REM DIRINDEX 1\2,1\3
REM DIRNAME cjc039,folder01,folder02
TITLE ""
FILE "1441-1460.mp3" MP3
  TRACK 01 AUDIO
    TITLE "0:"
    INDEX 01 00:00:00
  TRACK 02 AUDIO
    TITLE "2:cjc039_1881"
    INDEX 01 00:00:25
  TRACK 03 AUDIO
    TITLE "0:"
    INDEX 01 00:03:43
  TRACK 04 AUDIO
    TITLE "3:cjc039_1882"
    INDEX 01 00:04:17
  TRACK 05 AUDIO
    TITLE "0:"
    INDEX 01 00:07:43
  TRACK 06 AUDIO
    TITLE "2:cjc039_1883"
    INDEX 01 00:09:18
  TRACK 07 AUDIO
    TITLE "0:"
    INDEX 01 00:10:43
  TRACK 08 AUDIO
    TITLE "3:cjc039_1884"
    INDEX 01 00:11:09
  TRACK 09 AUDIO
    TITLE "0:"
    INDEX 01 00:14:41
  TRACK 10 AUDIO
    TITLE "2:cjc039_1885"
    INDEX 01 00:16:14
  TRACK 11 AUDIO
    TITLE "0:"
    INDEX 01 00:17:45
  TRACK 12 AUDIO
    TITLE "3:cjc039_1886"
    INDEX 01 00:18:21
  TRACK 13 AUDIO
    TITLE "0:"
    INDEX 01 00:21:58
  TRACK 14 AUDIO
    TITLE "2:cjc039_1887"
    INDEX 01 00:23:34
  TRACK 15 AUDIO
    TITLE "0:"
    INDEX 01 00:24:45
  TRACK 16 AUDIO
    TITLE "3:cjc039_1888"
    INDEX 01 00:25:25
  TRACK 17 AUDIO
    TITLE "0:"
    INDEX 01 00:28:27
  TRACK 18 AUDIO
    TITLE "2:cjc039_1889"
    INDEX 01 00:30:10
  TRACK 19 AUDIO
    TITLE "0:"
    INDEX 01 00:31:20
  TRACK 20 AUDIO
    TITLE "3:cjc039_1890"
    INDEX 01 00:31:73
  TRACK 21 AUDIO
    TITLE "0:"
    INDEX 01 00:35:06
  TRACK 22 AUDIO
    TITLE "2:cjc039_1891"
    INDEX 01 00:36:60
  TRACK 23 AUDIO
    TITLE "0:"
    INDEX 01 00:38:10
  TRACK 24 AUDIO
    TITLE "3:cjc039_1892"
    INDEX 01 00:38:53
  TRACK 25 AUDIO
    TITLE "0:"
    INDEX 01 00:41:69
  TRACK 26 AUDIO
    TITLE "2:cjc039_1893"
    INDEX 01 00:43:42
  TRACK 27 AUDIO
    TITLE "0:"
    INDEX 01 00:44:56
  TRACK 28 AUDIO
    TITLE "3:cjc039_1894"
    INDEX 01 00:45:32
  TRACK 29 AUDIO
    TITLE "0:"
    INDEX 01 00:49:55
  TRACK 30 AUDIO
    TITLE "2:cjc039_1895"
    INDEX 01 00:51:32
  TRACK 31 AUDIO
    TITLE "0:"
    INDEX 01 00:52:59
  TRACK 32 AUDIO
    TITLE "3:cjc039_1896"
    INDEX 01 00:53:35
  TRACK 33 AUDIO
    TITLE "0:"
    INDEX 01 00:57:03
  TRACK 34 AUDIO
    TITLE "2:cjc039_1897"
    INDEX 01 00:58:52
  TRACK 35 AUDIO
    TITLE "0:"
    INDEX 01 01:00:00
  TRACK 36 AUDIO
    TITLE "3:cjc039_1898"
    INDEX 01 01:00:53
  TRACK 37 AUDIO
    TITLE "0:"
    INDEX 01 01:04:13
  TRACK 38 AUDIO
    TITLE "2:cjc039_1899"
    INDEX 01 01:05:60
  TRACK 39 AUDIO
    TITLE "0:"
    INDEX 01 01:07:19
  TRACK 40 AUDIO
    TITLE "3:cjc039_1900"
    INDEX 01 01:07:66
  TRACK 41 AUDIO
    TITLE "0:"
    INDEX 01 01:11:45
  TRACK 42 AUDIO
    TITLE "2:cjc039_1901"
    INDEX 01 01:13:22
  TRACK 43 AUDIO
    TITLE "0:"
    INDEX 01 01:14:27
  TRACK 44 AUDIO
    TITLE "3:cjc039_1902"
    INDEX 01 01:15:05
  TRACK 45 AUDIO
    TITLE "0:"
    INDEX 01 01:18:27
  TRACK 46 AUDIO
    TITLE "2:cjc039_1903"
    INDEX 01 01:20:04
  TRACK 47 AUDIO
    TITLE "0:"
    INDEX 01 01:21:39
  TRACK 48 AUDIO
    TITLE "3:cjc039_1904"
    INDEX 01 01:22:19
  TRACK 49 AUDIO
    TITLE "0:"
    INDEX 01 01:25:49
  TRACK 50 AUDIO
    TITLE "2:cjc039_1905"
    INDEX 01 01:27:26
  TRACK 51 AUDIO
    TITLE "0:"
    INDEX 01 01:28:47
  TRACK 52 AUDIO
    TITLE "3:cjc039_1906"
    INDEX 01 01:29:23
  TRACK 53 AUDIO
    TITLE "0:"
    INDEX 01 01:32:51
  TRACK 54 AUDIO
    TITLE "2:cjc039_1907"
    INDEX 01 01:34:26
  TRACK 55 AUDIO
    TITLE "0:"
    INDEX 01 01:35:39
  TRACK 56 AUDIO
    TITLE "3:cjc039_1908"
    INDEX 01 01:36:15
  TRACK 57 AUDIO
    TITLE "0:"
    INDEX 01 01:39:37
  TRACK 58 AUDIO
    TITLE "2:cjc039_1909"
    INDEX 01 01:41:14
  TRACK 59 AUDIO
    TITLE "0:"
    INDEX 01 01:42:43
  TRACK 60 AUDIO
    TITLE "3:cjc039_1910"
    INDEX 01 01:43:17
  TRACK 61 AUDIO
    TITLE "0:"
    INDEX 01 01:46:72
  TRACK 62 AUDIO
    TITLE "2:cjc039_1911"
    INDEX 01 01:48:52
  TRACK 63 AUDIO
    TITLE "0:"
    INDEX 01 01:50:27
  TRACK 64 AUDIO
    TITLE "3:cjc039_1912"
    INDEX 01 01:51:01
  TRACK 65 AUDIO
    TITLE "0:"
    INDEX 01 01:55:01
  TRACK 66 AUDIO
    TITLE "2:cjc039_1913"
    INDEX 01 01:56:49
  TRACK 67 AUDIO
    TITLE "0:"
    INDEX 01 01:57:57
  TRACK 68 AUDIO
    TITLE "3:cjc039_1914"
    INDEX 01 01:58:36
  TRACK 69 AUDIO
    TITLE "0:"
    INDEX 01 02:01:60
  TRACK 70 AUDIO
    TITLE "2:cjc039_1915"
    INDEX 01 02:03:39
  TRACK 71 AUDIO
    TITLE "0:"
    INDEX 01 02:04:60
  TRACK 72 AUDIO
    TITLE "3:cjc039_1916"
    INDEX 01 02:05:38
  TRACK 73 AUDIO
    TITLE "0:"
    INDEX 01 02:09:40
  TRACK 74 AUDIO
    TITLE "2:cjc039_1917"
    INDEX 01 02:11:14
  TRACK 75 AUDIO
    TITLE "0:"
    INDEX 01 02:12:40
  TRACK 76 AUDIO
    TITLE "3:cjc039_1918"
    INDEX 01 02:13:16
  TRACK 77 AUDIO
    TITLE "0:"
    INDEX 01 02:16:38
  TRACK 78 AUDIO
    TITLE "2:cjc039_1919"
    INDEX 01 02:18:10
  TRACK 79 AUDIO
    TITLE "0:"
    INDEX 01 02:19:42
  TRACK 80 AUDIO
    TITLE "3:cjc039_1920"
    INDEX 01 02:20:14
  TRACK 81 AUDIO
    TITLE "0:"
    INDEX 01 02:24:42
